<svg xmlns="http://www.w3.org/2000/svg" xmlns:xlink="http://www.w3.org/1999/xlink" width="500" zoomAndPan="magnify" viewBox="0 0 375 374.999991" height="500" preserveAspectRatio="xMidYMid meet" version="1.0"><defs><clipPath id="id1"><path d="M 20 148 L 148 148 L 148 333.734375 L 20 333.734375 Z M 20 148 " clip-rule="nonzero"/></clipPath><clipPath id="id2"><path d="M 84 212 L 177 212 L 177 333.734375 L 84 333.734375 Z M 84 212 " clip-rule="nonzero"/></clipPath><clipPath id="id3"><path d="M 227 148 L 355 148 L 355 333.734375 L 227 333.734375 Z M 227 148 " clip-rule="nonzero"/></clipPath><clipPath id="id4"><path d="M 198 212 L 291 212 L 291 333.734375 L 198 333.734375 Z M 198 212 " clip-rule="nonzero"/></clipPath></defs><path fill="rgb(36.079407%, 88.238525%, 90.19928%)" d="M 92.109375 102.695312 C 95.964844 103.160156 99.457031 100.40625 99.917969 96.558594 C 100.332031 93.128906 100.988281 89.800781 101.882812 86.671875 C 104.90625 76.042969 111.96875 67.308594 121.765625 62.082031 C 131.855469 56.703125 143.449219 55.695312 154.414062 59.25 C 159.976562 61.054688 165.269531 63.578125 170.148438 66.761719 C 180.691406 73.628906 194.277344 73.640625 204.761719 66.796875 C 209.660156 63.597656 214.972656 61.0625 220.550781 59.25 C 231.539062 55.6875 243.15625 56.714844 253.261719 62.140625 C 263.117188 67.433594 270.1875 76.257812 273.175781 86.988281 C 276.828125 100.105469 275.179688 111.984375 275.15625 112.152344 C 268.738281 158.007812 224.5625 189.457031 198.800781 204.121094 C 191.820312 208.09375 183.144531 208.089844 176.160156 204.117188 C 159.382812 194.566406 128.683594 174.179688 111.558594 144.949219 C 109.363281 141.203125 109.488281 136.613281 111.878906 133.253906 C 113.238281 131.34375 115.734375 128.789062 121.996094 128.84375 C 126.636719 128.875 131.183594 130.683594 134.792969 133.929688 L 135.164062 134.261719 C 151.015625 148.3125 174.742188 150.183594 192.863281 138.8125 L 194.824219 137.582031 C 201.152344 133.613281 205.738281 132.136719 211.742188 132.136719 C 215.621094 132.136719 218.765625 128.992188 218.765625 125.113281 C 218.765625 121.238281 215.621094 118.09375 211.742188 118.09375 C 203.019531 118.09375 195.957031 120.292969 187.363281 125.683594 L 185.398438 126.917969 C 172.523438 134.992188 155.695312 133.695312 144.476562 123.75 L 144.199219 123.5 C 138.019531 117.9375 130.164062 114.847656 122.082031 114.800781 C 122.007812 114.800781 121.9375 114.800781 121.867188 114.800781 C 110.21875 114.800781 103.785156 120.402344 100.429688 125.113281 C 94.847656 132.972656 94.457031 143.542969 99.441406 152.046875 C 118.21875 184.101562 151.214844 206.078125 169.210938 216.320312 C 174.847656 219.527344 181.167969 221.132812 187.488281 221.132812 C 193.800781 221.132812 200.117188 219.53125 205.75 216.328125 C 233.753906 200.386719 281.816406 165.910156 289.058594 114.160156 C 289.144531 113.5625 291.191406 99.332031 286.707031 83.222656 C 282.683594 68.769531 273.164062 56.886719 259.90625 49.765625 C 246.59375 42.617188 230.671875 41.207031 216.21875 45.890625 C 209.457031 48.085938 203.023438 51.160156 197.085938 55.035156 C 191.257812 58.839844 183.695312 58.820312 177.816406 54.992188 C 171.898438 51.136719 165.484375 48.074219 158.746094 45.890625 C 144.332031 41.21875 128.445312 42.601562 115.15625 49.691406 C 101.960938 56.730469 92.449219 68.496094 88.375 82.828125 C 87.28125 86.667969 86.472656 90.722656 85.976562 94.886719 C 85.511719 98.734375 88.257812 102.230469 92.109375 102.695312 " fill-opacity="1" fill-rule="nonzero"/><path fill="rgb(36.079407%, 88.238525%, 90.19928%)" d="M 231.480469 129.015625 C 231.730469 129.394531 232.03125 129.757812 232.351562 130.078125 C 233.65625 131.382812 235.472656 132.132812 237.320312 132.132812 C 237.777344 132.132812 238.238281 132.09375 238.691406 132.007812 C 239.132812 131.902344 239.574219 131.773438 240.007812 131.601562 C 240.425781 131.421875 240.839844 131.203125 241.210938 130.953125 C 241.601562 130.703125 241.960938 130.398438 242.28125 130.078125 C 242.605469 129.757812 242.894531 129.394531 243.15625 129.015625 C 243.40625 128.632812 243.628906 128.222656 243.796875 127.800781 C 243.980469 127.378906 244.109375 126.941406 244.199219 126.488281 C 244.292969 126.035156 244.339844 125.574219 244.339844 125.113281 C 244.339844 124.660156 244.292969 124.199219 244.199219 123.738281 C 244.109375 123.296875 243.980469 122.855469 243.796875 122.425781 C 243.628906 122.003906 243.40625 121.601562 243.15625 121.21875 C 242.894531 120.832031 242.605469 120.46875 242.28125 120.144531 C 241.960938 119.828125 241.601562 119.535156 241.210938 119.277344 C 240.839844 119.023438 240.425781 118.800781 240.007812 118.632812 C 239.574219 118.453125 239.132812 118.320312 238.691406 118.230469 C 236.402344 117.769531 233.976562 118.519531 232.351562 120.144531 C 232.03125 120.46875 231.730469 120.832031 231.480469 121.21875 C 231.230469 121.601562 231.007812 122.003906 230.835938 122.425781 C 230.65625 122.855469 230.527344 123.296875 230.4375 123.738281 C 230.347656 124.199219 230.292969 124.660156 230.292969 125.113281 C 230.292969 125.574219 230.347656 126.035156 230.4375 126.488281 C 230.527344 126.941406 230.65625 127.378906 230.835938 127.800781 C 231.007812 128.222656 231.230469 128.632812 231.480469 129.015625 " fill-opacity="1" fill-rule="nonzero"/><g clip-path="url(#id1)"><path fill="rgb(36.079407%, 88.238525%, 90.19928%)" d="M 52.328125 274.101562 C 58.246094 278.144531 65.160156 282.925781 72.875 288.316406 C 82.507812 295.050781 88.925781 305.597656 90.488281 317.246094 C 91.75 326.640625 99.84375 333.726562 109.320312 333.726562 L 140.351562 333.726562 C 144.230469 333.726562 147.371094 330.582031 147.371094 326.703125 C 147.371094 322.824219 144.230469 319.679688 140.351562 319.679688 L 109.320312 319.679688 C 106.847656 319.679688 104.738281 317.832031 104.410156 315.382812 C 102.328125 299.84375 93.769531 285.785156 80.921875 276.804688 C 73.164062 271.386719 66.207031 266.574219 60.246094 262.503906 C 54.886719 258.84375 50.914062 253.648438 48.757812 247.480469 C 44.296875 234.722656 36.484375 207.863281 34.273438 171.308594 C 34.140625 169.105469 34.902344 167.007812 36.417969 165.394531 C 37.941406 163.78125 40 162.886719 42.21875 162.886719 C 46.210938 162.886719 49.605469 165.871094 50.109375 169.828125 C 51.167969 178.0625 52.726562 189.851562 54.183594 199.265625 C 55.328125 206.707031 59.085938 213.542969 64.765625 218.511719 L 68.742188 221.996094 C 71.660156 224.554688 76.097656 224.257812 78.652344 221.339844 C 81.207031 218.421875 80.914062 213.988281 77.996094 211.429688 L 74.015625 207.945312 C 70.820312 205.148438 68.707031 201.304688 68.0625 197.125 C 66.632812 187.859375 65.085938 176.195312 64.042969 168.042969 C 62.640625 157.097656 53.257812 148.84375 42.21875 148.84375 C 36.175781 148.84375 30.335938 151.367188 26.191406 155.769531 C 22.050781 160.164062 19.886719 166.136719 20.253906 172.160156 C 22.453125 208.488281 29.757812 235.691406 35.5 252.113281 C 38.652344 261.136719 44.472656 268.738281 52.328125 274.101562 " fill-opacity="1" fill-rule="nonzero"/></g><g clip-path="url(#id2)"><path fill="rgb(36.079407%, 88.238525%, 90.19928%)" d="M 104.253906 264.371094 C 106.550781 266.566406 108.078125 269.507812 108.550781 272.648438 L 110.292969 284.261719 C 110.867188 288.101562 114.4375 290.742188 118.277344 290.167969 C 122.113281 289.589844 124.757812 286.015625 124.179688 282.179688 L 122.441406 270.566406 C 121.507812 264.355469 118.492188 258.546875 113.945312 254.210938 L 101.8125 242.636719 C 99.847656 240.765625 98.816406 238.246094 98.890625 235.539062 C 98.96875 232.832031 100.144531 230.375 102.207031 228.621094 C 105.21875 226.058594 109.570312 225.65625 113.035156 227.621094 C 132.558594 238.695312 147.003906 254.921875 155.683594 266.582031 C 160.128906 272.546875 162.574219 279.945312 162.574219 287.414062 L 162.574219 326.703125 C 162.574219 330.582031 165.71875 333.726562 169.59375 333.726562 C 173.472656 333.726562 176.617188 330.582031 176.617188 326.703125 L 176.617188 287.414062 C 176.617188 276.945312 173.183594 266.566406 166.953125 258.195312 C 157.464844 245.453125 141.613281 227.6875 119.964844 215.40625 C 111.386719 210.539062 100.59375 211.550781 93.101562 217.921875 C 88.046875 222.226562 85.039062 228.503906 84.851562 235.140625 C 84.664062 241.777344 87.3125 248.214844 92.117188 252.796875 L 104.253906 264.371094 " fill-opacity="1" fill-rule="nonzero"/></g><g clip-path="url(#id3)"><path fill="rgb(36.079407%, 88.238525%, 90.19928%)" d="M 332.75 148.84375 C 321.710938 148.84375 312.328125 157.097656 310.925781 168.042969 C 309.878906 176.210938 308.332031 187.890625 306.910156 197.121094 C 306.261719 201.304688 304.148438 205.148438 300.953125 207.945312 L 296.976562 211.429688 C 294.054688 213.988281 293.761719 218.425781 296.316406 221.339844 C 298.871094 224.257812 303.308594 224.554688 306.226562 221.996094 L 310.207031 218.511719 C 315.882812 213.542969 319.640625 206.707031 320.789062 199.265625 C 322.234375 189.886719 323.800781 178.078125 324.859375 169.828125 C 325.367188 165.871094 328.757812 162.886719 332.75 162.886719 C 334.96875 162.886719 337.027344 163.78125 338.550781 165.394531 C 340.066406 167.007812 340.832031 169.105469 340.695312 171.308594 C 338.484375 207.867188 330.671875 234.722656 326.210938 247.480469 C 324.054688 253.648438 320.082031 258.84375 314.722656 262.503906 C 305.847656 268.558594 296.207031 275.289062 289.679688 279.863281 C 279.605469 286.929688 272.890625 297.976562 271.257812 310.175781 L 270.558594 315.382812 C 270.230469 317.832031 268.121094 319.679688 265.648438 319.679688 L 234.617188 319.679688 C 230.738281 319.679688 227.597656 322.824219 227.597656 326.703125 C 227.597656 330.582031 230.738281 333.726562 234.617188 333.726562 L 265.648438 333.726562 C 275.125 333.726562 283.21875 326.640625 284.480469 317.246094 L 285.175781 312.039062 C 286.292969 303.71875 290.875 296.183594 297.746094 291.363281 C 304.238281 286.808594 313.828125 280.117188 322.640625 274.101562 C 330.496094 268.738281 336.316406 261.136719 339.46875 252.113281 C 345.210938 235.695312 352.515625 208.492188 354.714844 172.160156 C 355.078125 166.136719 352.917969 160.164062 348.777344 155.769531 C 344.632812 151.367188 338.792969 148.84375 332.75 148.84375 " fill-opacity="1" fill-rule="nonzero"/></g><g clip-path="url(#id4)"><path fill="rgb(36.079407%, 88.238525%, 90.19928%)" d="M 281.867188 217.925781 C 274.375 211.550781 263.582031 210.539062 255 215.40625 C 233.355469 227.6875 217.503906 245.453125 208.015625 258.191406 C 201.785156 266.5625 198.351562 276.945312 198.351562 287.414062 L 198.351562 326.703125 C 198.351562 330.582031 201.496094 333.726562 205.371094 333.726562 C 209.25 333.726562 212.398438 330.582031 212.398438 326.703125 L 212.398438 287.414062 C 212.398438 279.945312 214.839844 272.546875 219.28125 266.582031 C 227.964844 254.921875 242.410156 238.695312 261.933594 227.621094 C 265.398438 225.65625 269.75 226.058594 272.761719 228.621094 C 274.824219 230.375 276 232.832031 276.078125 235.539062 C 276.15625 238.246094 275.117188 240.765625 273.160156 242.636719 L 261.023438 254.210938 C 256.476562 258.546875 253.460938 264.355469 252.527344 270.566406 L 250.789062 282.179688 C 250.210938 286.015625 252.855469 289.589844 256.691406 290.167969 C 260.515625 290.75 264.101562 288.101562 264.679688 284.261719 L 266.417969 272.648438 C 266.890625 269.507812 268.417969 266.566406 270.714844 264.371094 L 282.851562 252.796875 C 287.65625 248.214844 290.304688 241.777344 290.117188 235.140625 C 289.929688 228.503906 286.921875 222.226562 281.867188 217.925781 " fill-opacity="1" fill-rule="nonzero"/></g></svg>