<svg xmlns="http://www.w3.org/2000/svg" xmlns:xlink="http://www.w3.org/1999/xlink" width="500" zoomAndPan="magnify" viewBox="0 0 375 374.999991" height="500" preserveAspectRatio="xMidYMid meet" version="1.0"><defs><g/><clipPath id="id1"><path d="M 78.132812 114 L 162 114 L 162 235.402344 L 78.132812 235.402344 Z M 78.132812 114 " clip-rule="nonzero"/></clipPath><clipPath id="id2"><path d="M 120 156 L 181 156 L 181 235.402344 L 120 235.402344 Z M 120 156 " clip-rule="nonzero"/></clipPath><clipPath id="id3"><path d="M 213 114 L 297 114 L 297 235.402344 L 213 235.402344 Z M 213 114 " clip-rule="nonzero"/></clipPath><clipPath id="id4"><path d="M 194 156 L 255 156 L 255 235.402344 L 194 235.402344 Z M 194 156 " clip-rule="nonzero"/></clipPath></defs><g fill="rgb(0%, 0%, 0%)" fill-opacity="1"><g transform="translate(14.431034, 244.577841)"><g><path d="M 9.269531 5.796875 C 9.757812 6.105469 10.171875 6.007812 10.476562 5.519531 L 16.71875 -4.457031 L 18.40625 6.777344 C 18.5 7.390625 18.863281 7.617188 19.4375 7.421875 L 30.414062 4.011719 L 24.128906 14.058594 C 23.824219 14.546875 23.917969 14.960938 24.40625 15.265625 L 30.148438 18.855469 C 30.636719 19.160156 31.046875 19.066406 31.355469 18.578125 L 47.886719 -7.859375 C 48.75 -9.234375 47.992188 -10.160156 46.472656 -9.625 L 24.59375 -1.949219 L 21.992188 -24.933594 C 21.808594 -26.613281 20.648438 -26.808594 19.785156 -25.433594 L 3.253906 1 C 2.945312 1.492188 3.042969 1.902344 3.53125 2.207031 Z M 9.269531 5.796875 "/></g></g></g><g fill="rgb(0%, 0%, 0%)" fill-opacity="1"><g transform="translate(53.651936, 268.161749)"><g><path d="M 22.363281 10.101562 C 22.886719 10.339844 23.285156 10.191406 23.519531 9.664062 L 25.859375 4.488281 C 26.097656 3.960938 25.949219 3.566406 25.421875 3.328125 L 13.976562 -1.839844 L 15.5625 -5.34375 L 25.449219 -0.878906 C 25.972656 -0.640625 26.378906 -0.808594 26.605469 -1.316406 L 28.769531 -6.101562 C 29.007812 -6.628906 28.855469 -7.023438 28.332031 -7.261719 L 18.445312 -11.726562 L 21.363281 -18.1875 L 32.808594 -13.019531 C 33.332031 -12.78125 33.730469 -12.929688 33.964844 -13.457031 L 36.304688 -18.632812 C 36.542969 -19.160156 36.394531 -19.554688 35.867188 -19.792969 L 17.261719 -28.199219 C 16.734375 -28.433594 16.339844 -28.285156 16.101562 -27.761719 L 3.320312 0.539062 C 3.082031 1.0625 3.230469 1.460938 3.757812 1.695312 Z M 22.363281 10.101562 "/></g></g></g><g fill="rgb(0%, 0%, 0%)" fill-opacity="1"><g transform="translate(84.56835, 281.961841)"><g><path d="M 14.433594 4.433594 C 26.335938 8.09375 33.320312 3.828125 36.324219 -5.953125 C 39.378906 -15.894531 35.804688 -23.3125 24.066406 -26.921875 L 13.574219 -30.144531 C 13.023438 -30.316406 12.652344 -30.117188 12.480469 -29.566406 L 3.359375 0.117188 C 3.191406 0.667969 3.390625 1.042969 3.941406 1.210938 Z M 18.988281 -20.707031 L 21.925781 -19.804688 C 27.804688 -17.996094 29.683594 -14.070312 28.011719 -8.640625 C 26.34375 -3.210938 22.535156 -0.851562 16.65625 -2.65625 L 13.71875 -3.558594 Z M 18.988281 -20.707031 "/></g></g></g><g fill="rgb(0%, 0%, 0%)" fill-opacity="1"><g transform="translate(123.539267, 293.099073)"><g><path d="M 10.894531 2.148438 C 11.460938 2.257812 11.8125 2.023438 11.925781 1.457031 L 17.925781 -29.007812 C 18.039062 -29.574219 17.804688 -29.925781 17.238281 -30.039062 L 10.386719 -31.386719 C 9.820312 -31.5 9.46875 -31.265625 9.355469 -30.699219 L 3.355469 -0.230469 C 3.242188 0.335938 3.476562 0.683594 4.042969 0.796875 Z M 10.894531 2.148438 "/></g></g></g><g fill="rgb(0%, 0%, 0%)" fill-opacity="1"><g transform="translate(143.949023, 297.36912)"><g><path d="M 19.53125 2.632812 C 25.808594 3.199219 31.0625 1.289062 34.496094 -2.347656 C 34.851562 -2.699219 34.753906 -3.074219 34.296875 -3.457031 L 28.898438 -7.804688 C 28.480469 -8.164062 28.089844 -8.113281 27.707031 -7.695312 C 25.917969 -5.882812 23.324219 -4.9375 20.238281 -5.214844 C 14.835938 -5.699219 11.582031 -9.59375 12.101562 -15.378906 C 12.625 -21.164062 16.519531 -24.417969 21.921875 -23.933594 C 25.003906 -23.65625 27.386719 -22.261719 28.828125 -20.160156 C 29.128906 -19.683594 29.503906 -19.5625 29.980469 -19.84375 L 36.066406 -23.15625 C 36.585938 -23.449219 36.707031 -23.847656 36.382812 -24.304688 C 33.605469 -28.457031 28.792969 -31.226562 22.625 -31.78125 C 11.992188 -32.738281 4.328125 -26.671875 3.382812 -16.164062 C 2.4375 -5.65625 8.898438 1.679688 19.53125 2.632812 Z M 19.53125 2.632812 "/></g></g></g><g fill="rgb(0%, 0%, 0%)" fill-opacity="1"><g transform="translate(185.831578, 300.803852)"><g><path d="M 19.707031 -0.277344 C 30.390625 -0.902344 37.117188 -8.035156 36.5 -18.566406 C 35.882812 -29.101562 28.367188 -35.398438 17.6875 -34.773438 C 7.027344 -34.148438 0.34375 -27.019531 0.960938 -16.484375 C 1.578125 -5.953125 9.046875 0.347656 19.707031 -0.277344 Z M 19.246094 -8.144531 C 13.832031 -7.828125 10.039062 -11.199219 9.699219 -16.996094 C 9.359375 -22.796875 12.734375 -26.589844 18.148438 -26.90625 C 23.605469 -27.226562 27.441406 -23.855469 27.78125 -18.058594 C 28.121094 -12.257812 24.707031 -8.464844 19.246094 -8.144531 Z M 19.246094 -8.144531 "/></g></g></g><g fill="rgb(0%, 0%, 0%)" fill-opacity="1"><g transform="translate(231.46981, 297.519262)"><g><path d="M 10.617188 -2.222656 C 11.183594 -2.339844 11.414062 -2.695312 11.296875 -3.257812 L 8.089844 -18.582031 L 29.246094 -6.117188 C 30.839844 -5.164062 31.6875 -5.910156 31.382812 -7.375 L 25.003906 -37.851562 C 24.886719 -38.414062 24.535156 -38.648438 23.96875 -38.527344 L 17.425781 -37.160156 C 16.863281 -37.042969 16.628906 -36.6875 16.75 -36.125 L 19.839844 -21.34375 L -1.453125 -33.429688 C -2.863281 -34.222656 -3.652344 -33.511719 -3.34375 -32.050781 L 3.039062 -1.53125 C 3.15625 -0.964844 3.511719 -0.734375 4.078125 -0.851562 Z M 10.617188 -2.222656 "/></g></g></g><g fill="rgb(0%, 0%, 0%)" fill-opacity="1"><g transform="translate(271.907181, 288.42527)"><g><path d="M 23.1875 -8.03125 C 23.730469 -8.21875 23.917969 -8.597656 23.726562 -9.144531 L 21.871094 -14.511719 C 21.679688 -15.058594 21.300781 -15.242188 20.753906 -15.054688 L 8.890625 -10.945312 L 7.632812 -14.574219 L 17.882812 -18.125 C 18.429688 -18.316406 18.605469 -18.714844 18.425781 -19.238281 L 16.703125 -24.203125 C 16.515625 -24.75 16.136719 -24.933594 15.589844 -24.746094 L 5.339844 -21.195312 L 3.019531 -27.894531 L 14.886719 -32.003906 C 15.429688 -32.191406 15.613281 -32.574219 15.425781 -33.117188 L 13.566406 -38.488281 C 13.378906 -39.03125 12.996094 -39.214844 12.453125 -39.027344 L -6.839844 -32.347656 C -7.382812 -32.15625 -7.570312 -31.777344 -7.378906 -31.230469 L 2.78125 -1.890625 C 2.96875 -1.34375 3.351562 -1.160156 3.894531 -1.347656 Z M 23.1875 -8.03125 "/></g></g></g><g fill="rgb(0%, 0%, 0%)" fill-opacity="1"><g transform="translate(303.8781, 277.2147)"><g><path d="M 18.027344 -7.972656 C 23.667969 -10.773438 27.148438 -15.148438 28.171875 -20.046875 C 28.289062 -20.53125 28.011719 -20.800781 27.421875 -20.886719 L 20.546875 -21.765625 C 20.003906 -21.855469 19.695312 -21.605469 19.589844 -21.054688 C 19.007812 -18.570312 17.292969 -16.410156 14.519531 -15.03125 C 9.660156 -12.617188 4.851562 -14.238281 2.269531 -19.4375 C -0.3125 -24.640625 1.304688 -29.453125 6.164062 -31.863281 C 8.9375 -33.242188 11.695312 -33.300781 14.023438 -32.261719 C 14.527344 -32.011719 14.910156 -32.105469 15.171875 -32.59375 L 18.625 -38.601562 C 18.914062 -39.125 18.808594 -39.527344 18.292969 -39.75 C 13.753906 -41.832031 8.203125 -41.675781 2.65625 -38.921875 C -6.90625 -34.171875 -10.265625 -24.996094 -5.574219 -15.546875 C -0.882812 -6.097656 8.460938 -3.222656 18.027344 -7.972656 Z M 18.027344 -7.972656 "/></g></g></g><g fill="rgb(0%, 0%, 0%)" fill-opacity="1"><g transform="translate(340.828738, 258.113398)"><g><path d="M 13.574219 -8.976562 C 14.039062 -9.28125 14.140625 -9.707031 13.824219 -10.1875 L 0.3125 -30.621094 L 5.816406 -34.261719 C 6.296875 -34.578125 6.382812 -34.992188 6.066406 -35.476562 L 2.933594 -40.214844 C 2.613281 -40.695312 2.199219 -40.777344 1.71875 -40.460938 L -16.628906 -28.328125 C -17.113281 -28.011719 -17.195312 -27.597656 -16.878906 -27.117188 L -13.746094 -22.378906 C -13.425781 -21.894531 -13.011719 -21.8125 -12.53125 -22.128906 L -7.027344 -25.769531 L 6.484375 -5.335938 C 6.800781 -4.855469 7.234375 -4.78125 7.695312 -5.089844 Z M 13.574219 -8.976562 "/></g></g></g><g fill="rgb(0%, 0%, 0%)" fill-opacity="1"><g transform="translate(366.267348, 240.733303)"><g/></g></g><path fill="rgb(36.079407%, 88.238525%, 90.19928%)" d="M 125.332031 84.929688 C 127.851562 85.234375 130.128906 83.441406 130.433594 80.933594 C 130.699219 78.699219 131.132812 76.53125 131.714844 74.496094 C 133.6875 67.574219 138.304688 61.886719 144.703125 58.480469 C 151.296875 54.976562 158.867188 54.320312 166.03125 56.636719 C 169.664062 57.808594 173.121094 59.457031 176.308594 61.527344 C 183.195312 66 192.070312 66.007812 198.921875 61.550781 C 202.121094 59.46875 205.589844 57.816406 209.234375 56.636719 C 216.410156 54.316406 224 54.984375 230.601562 58.519531 C 237.039062 61.964844 241.660156 67.714844 243.613281 74.703125 C 245.996094 83.246094 244.917969 90.980469 244.902344 91.089844 C 240.710938 120.957031 211.855469 141.4375 195.027344 150.988281 C 190.464844 153.574219 184.796875 153.574219 180.234375 150.984375 C 169.277344 144.765625 149.222656 131.488281 138.035156 112.453125 C 136.601562 110.011719 136.683594 107.019531 138.246094 104.832031 C 139.132812 103.589844 140.765625 101.925781 144.855469 101.960938 C 147.886719 101.980469 150.855469 103.160156 153.210938 105.273438 L 153.457031 105.488281 C 163.808594 114.640625 179.308594 115.859375 191.144531 108.453125 L 192.429688 107.652344 C 196.5625 105.066406 199.558594 104.105469 203.480469 104.105469 C 206.015625 104.105469 208.066406 102.058594 208.066406 99.53125 C 208.066406 97.007812 206.015625 94.960938 203.480469 94.960938 C 197.78125 94.960938 193.167969 96.394531 187.554688 99.902344 L 186.269531 100.707031 C 177.859375 105.964844 166.867188 105.121094 159.539062 98.644531 L 159.355469 98.480469 C 155.320312 94.859375 150.191406 92.847656 144.910156 92.816406 C 144.863281 92.816406 144.816406 92.816406 144.769531 92.816406 C 137.160156 92.816406 132.957031 96.464844 130.765625 99.53125 C 127.117188 104.648438 126.863281 111.535156 130.121094 117.074219 C 142.386719 137.949219 163.941406 152.261719 175.695312 158.933594 C 179.378906 161.023438 183.507812 162.066406 187.636719 162.066406 C 191.761719 162.066406 195.886719 161.023438 199.5625 158.9375 C 217.859375 148.558594 249.253906 126.101562 253.984375 92.398438 C 254.042969 92.007812 255.378906 82.742188 252.449219 72.25 C 249.820312 62.835938 243.605469 55.097656 234.941406 50.460938 C 226.246094 45.804688 215.84375 44.882812 206.402344 47.9375 C 201.988281 49.367188 197.78125 51.367188 193.90625 53.890625 C 190.097656 56.367188 185.15625 56.355469 181.316406 53.863281 C 177.453125 51.351562 173.261719 49.359375 168.859375 47.9375 C 159.445312 44.890625 149.066406 45.792969 140.386719 50.410156 C 131.765625 54.996094 125.550781 62.660156 122.890625 71.992188 C 122.175781 74.492188 121.648438 77.132812 121.324219 79.84375 C 121.023438 82.351562 122.816406 84.628906 125.332031 84.929688 " fill-opacity="1" fill-rule="nonzero"/><path fill="rgb(36.079407%, 88.238525%, 90.19928%)" d="M 216.371094 102.074219 C 216.535156 102.320312 216.734375 102.558594 216.945312 102.765625 C 217.792969 103.613281 218.980469 104.105469 220.1875 104.105469 C 220.488281 104.105469 220.789062 104.078125 221.082031 104.019531 C 221.371094 103.953125 221.660156 103.871094 221.941406 103.757812 C 222.21875 103.640625 222.488281 103.496094 222.730469 103.335938 C 222.984375 103.171875 223.21875 102.972656 223.429688 102.765625 C 223.640625 102.558594 223.828125 102.320312 224 102.074219 C 224.164062 101.824219 224.308594 101.554688 224.421875 101.28125 C 224.539062 101.007812 224.625 100.722656 224.683594 100.425781 C 224.742188 100.132812 224.773438 99.832031 224.773438 99.53125 C 224.773438 99.238281 224.742188 98.9375 224.683594 98.636719 C 224.625 98.347656 224.539062 98.0625 224.421875 97.78125 C 224.308594 97.507812 224.164062 97.246094 224 96.996094 C 223.828125 96.742188 223.640625 96.507812 223.429688 96.296875 C 223.21875 96.089844 222.984375 95.898438 222.730469 95.730469 C 222.488281 95.566406 222.21875 95.421875 221.941406 95.3125 C 221.660156 95.191406 221.371094 95.109375 221.082031 95.046875 C 219.589844 94.75 218.003906 95.238281 216.945312 96.296875 C 216.734375 96.507812 216.535156 96.742188 216.371094 96.996094 C 216.210938 97.246094 216.0625 97.507812 215.953125 97.78125 C 215.835938 98.0625 215.75 98.347656 215.691406 98.636719 C 215.632812 98.9375 215.597656 99.238281 215.597656 99.53125 C 215.597656 99.832031 215.632812 100.132812 215.691406 100.425781 C 215.75 100.722656 215.835938 101.007812 215.953125 101.28125 C 216.0625 101.554688 216.210938 101.824219 216.371094 102.074219 " fill-opacity="1" fill-rule="nonzero"/><g clip-path="url(#id1)"><path fill="rgb(36.079407%, 88.238525%, 90.19928%)" d="M 99.34375 196.566406 C 103.210938 199.195312 107.726562 202.3125 112.765625 205.824219 C 119.058594 210.210938 123.25 217.078125 124.269531 224.664062 C 125.09375 230.78125 130.382812 235.398438 136.574219 235.398438 L 156.84375 235.398438 C 159.378906 235.398438 161.429688 233.347656 161.429688 230.824219 C 161.429688 228.296875 159.378906 226.25 156.84375 226.25 L 136.574219 226.25 C 134.960938 226.25 133.578125 225.046875 133.367188 223.449219 C 132.007812 213.332031 126.414062 204.175781 118.019531 198.324219 C 112.953125 194.796875 108.410156 191.660156 104.515625 189.011719 C 101.015625 186.628906 98.417969 183.246094 97.011719 179.226562 C 94.097656 170.917969 88.996094 153.425781 87.550781 129.617188 C 87.460938 128.183594 87.960938 126.816406 88.949219 125.765625 C 89.945312 124.714844 91.289062 124.132812 92.738281 124.132812 C 95.347656 124.132812 97.566406 126.078125 97.894531 128.652344 C 98.585938 134.015625 99.605469 141.695312 100.554688 147.828125 C 101.304688 152.671875 103.757812 157.125 107.46875 160.359375 L 110.066406 162.628906 C 111.972656 164.292969 114.871094 164.101562 116.539062 162.203125 C 118.207031 160.300781 118.015625 157.414062 116.113281 155.75 L 113.511719 153.480469 C 111.425781 151.65625 110.042969 149.15625 109.621094 146.429688 C 108.6875 140.394531 107.675781 132.800781 106.996094 127.488281 C 106.078125 120.363281 99.953125 114.984375 92.738281 114.984375 C 88.792969 114.984375 84.976562 116.632812 82.269531 119.496094 C 79.566406 122.359375 78.152344 126.25 78.390625 130.171875 C 79.828125 153.832031 84.601562 171.550781 88.351562 182.246094 C 90.410156 188.121094 94.210938 193.074219 99.34375 196.566406 " fill-opacity="1" fill-rule="nonzero"/></g><g clip-path="url(#id2)"><path fill="rgb(36.079407%, 88.238525%, 90.19928%)" d="M 133.261719 190.226562 C 134.765625 191.65625 135.761719 193.574219 136.070312 195.617188 L 137.207031 203.183594 C 137.582031 205.683594 139.917969 207.402344 142.425781 207.027344 C 144.929688 206.652344 146.65625 204.324219 146.28125 201.828125 L 145.144531 194.261719 C 144.535156 190.21875 142.566406 186.433594 139.59375 183.609375 L 131.667969 176.070312 C 130.386719 174.855469 129.710938 173.214844 129.757812 171.449219 C 129.808594 169.6875 130.578125 168.085938 131.929688 166.945312 C 133.894531 165.273438 136.738281 165.011719 139 166.292969 C 151.753906 173.507812 161.191406 184.074219 166.859375 191.667969 C 169.761719 195.550781 171.359375 200.371094 171.359375 205.234375 L 171.359375 230.824219 C 171.359375 233.347656 173.414062 235.398438 175.949219 235.398438 C 178.480469 235.398438 180.535156 233.347656 180.535156 230.824219 L 180.535156 205.234375 C 180.535156 198.417969 178.292969 191.65625 174.222656 186.207031 C 168.023438 177.90625 157.667969 166.335938 143.527344 158.335938 C 137.921875 155.167969 130.871094 155.828125 125.980469 159.976562 C 122.675781 162.78125 120.710938 166.867188 120.589844 171.191406 C 120.464844 175.515625 122.195312 179.703125 125.335938 182.691406 L 133.261719 190.226562 " fill-opacity="1" fill-rule="nonzero"/></g><g clip-path="url(#id3)"><path fill="rgb(36.079407%, 88.238525%, 90.19928%)" d="M 282.527344 114.984375 C 275.316406 114.984375 269.1875 120.363281 268.269531 127.488281 C 267.585938 132.8125 266.578125 140.417969 265.648438 146.429688 C 265.222656 149.15625 263.84375 151.65625 261.753906 153.480469 L 259.15625 155.75 C 257.25 157.414062 257.058594 160.304688 258.726562 162.203125 C 260.394531 164.101562 263.296875 164.292969 265.199219 162.628906 L 267.800781 160.359375 C 271.507812 157.125 273.964844 152.671875 274.714844 147.828125 C 275.660156 141.71875 276.679688 134.027344 277.371094 128.652344 C 277.703125 126.078125 279.917969 124.132812 282.527344 124.132812 C 283.976562 124.132812 285.320312 124.714844 286.316406 125.765625 C 287.304688 126.816406 287.804688 128.183594 287.714844 129.617188 C 286.273438 153.425781 281.167969 170.917969 278.253906 179.226562 C 276.847656 183.246094 274.25 186.628906 270.75 189.011719 C 264.953125 192.957031 258.65625 197.339844 254.390625 200.320312 C 247.8125 204.917969 243.425781 212.113281 242.355469 220.058594 L 241.902344 223.449219 C 241.6875 225.046875 240.308594 226.25 238.695312 226.25 L 218.421875 226.25 C 215.890625 226.25 213.835938 228.296875 213.835938 230.824219 C 213.835938 233.347656 215.890625 235.398438 218.421875 235.398438 L 238.695312 235.398438 C 244.882812 235.398438 250.171875 230.78125 250.996094 224.664062 L 251.449219 221.273438 C 252.179688 215.855469 255.171875 210.945312 259.660156 207.808594 C 263.902344 204.839844 270.167969 200.484375 275.925781 196.566406 C 281.054688 193.070312 284.855469 188.121094 286.914062 182.246094 C 290.667969 171.550781 295.4375 153.835938 296.875 130.171875 C 297.113281 126.25 295.699219 122.359375 292.996094 119.496094 C 290.289062 116.632812 286.472656 114.984375 282.527344 114.984375 " fill-opacity="1" fill-rule="nonzero"/></g><g clip-path="url(#id4)"><path fill="rgb(36.079407%, 88.238525%, 90.19928%)" d="M 249.285156 159.980469 C 244.394531 155.828125 237.34375 155.167969 231.738281 158.335938 C 217.597656 166.335938 207.242188 177.90625 201.046875 186.203125 C 196.972656 191.65625 194.730469 198.417969 194.730469 205.234375 L 194.730469 230.824219 C 194.730469 233.347656 196.785156 235.398438 199.320312 235.398438 C 201.851562 235.398438 203.90625 233.347656 203.90625 230.824219 L 203.90625 205.234375 C 203.90625 200.371094 205.503906 195.550781 208.40625 191.667969 C 214.074219 184.074219 223.511719 173.507812 236.265625 166.292969 C 238.53125 165.015625 241.371094 165.273438 243.339844 166.945312 C 244.6875 168.085938 245.457031 169.6875 245.507812 171.449219 C 245.558594 173.214844 244.878906 174.855469 243.601562 176.070312 L 235.671875 183.613281 C 232.703125 186.433594 230.730469 190.21875 230.121094 194.261719 L 228.984375 201.828125 C 228.609375 204.324219 230.335938 206.652344 232.839844 207.027344 C 235.339844 207.40625 237.683594 205.683594 238.058594 203.183594 L 239.195312 195.617188 C 239.503906 193.574219 240.5 191.65625 242.003906 190.226562 L 249.933594 182.6875 C 253.070312 179.703125 254.800781 175.515625 254.675781 171.191406 C 254.554688 166.867188 252.589844 162.78125 249.285156 159.980469 " fill-opacity="1" fill-rule="nonzero"/></g></svg>