<?xml version="1.0" encoding="utf-8"?>
<svg viewBox="72.576 237.712 349.305 34.555" xmlns="http://www.w3.org/2000/svg">
  <g fill="rgb(100%, 100%, 100%)" fill-opacity="1" transform="matrix(1, 0, 0, 1, 62.213097, 68.935318)">
    <g transform="translate(7.073573, 202.455937)">
      <g>
        <path d="M 10.933594 0 C 11.511719 0 11.808594 -0.300781 11.808594 -0.875 L 11.808594 -12.644531 L 19.199219 -4.015625 C 19.605469 -3.546875 20.03125 -3.546875 20.417969 -4.015625 L 27.914062 -12.726562 L 27.914062 -0.875 C 27.914062 -0.300781 28.210938 0 28.789062 0 L 35.558594 0 C 36.136719 0 36.433594 -0.300781 36.433594 -0.875 L 36.433594 -32.054688 C 36.433594 -33.679688 35.300781 -34.0625 34.296875 -32.804688 L 19.820312 -14.691406 L 5.425781 -32.804688 C 4.378906 -34.128906 3.289062 -33.679688 3.289062 -32.054688 L 3.289062 -0.875 C 3.289062 -0.300781 3.585938 0 4.164062 0 Z M 10.933594 0 "/>
      </g>
    </g>
  </g>
  <g fill="rgb(100%, 100%, 100%)" fill-opacity="1" transform="matrix(1, 0, 0, 1, 62.213097, 68.935318)">
    <g transform="translate(50.766593, 202.455937)">
      <g>
        <path d="M 24.539062 0 C 25.113281 0 25.414062 -0.300781 25.414062 -0.875 L 25.414062 -6.554688 C 25.414062 -7.132812 25.113281 -7.433594 24.539062 -7.433594 L 11.980469 -7.433594 L 11.980469 -11.277344 L 22.828125 -11.277344 C 23.40625 -11.277344 23.707031 -11.597656 23.707031 -12.152344 L 23.707031 -17.40625 C 23.707031 -17.980469 23.40625 -18.28125 22.828125 -18.28125 L 11.980469 -18.28125 L 11.980469 -25.371094 L 24.539062 -25.371094 C 25.113281 -25.371094 25.414062 -25.671875 25.414062 -26.246094 L 25.414062 -31.929688 C 25.414062 -32.503906 25.113281 -32.804688 24.539062 -32.804688 L 4.121094 -32.804688 C 3.546875 -32.804688 3.246094 -32.503906 3.246094 -31.929688 L 3.246094 -0.875 C 3.246094 -0.300781 3.546875 0 4.121094 0 Z M 24.539062 0 "/>
      </g>
    </g>
  </g>
  <g fill="rgb(100%, 100%, 100%)" fill-opacity="1" transform="matrix(1, 0, 0, 1, 62.213097, 68.935318)">
    <g transform="translate(82.6529, 202.455937)">
      <g>
        <path d="M 15.097656 0 C 27.550781 0 32.972656 -6.128906 32.972656 -16.359375 C 32.972656 -26.757812 27.378906 -32.804688 15.097656 -32.804688 L 4.121094 -32.804688 C 3.546875 -32.804688 3.246094 -32.503906 3.246094 -31.929688 L 3.246094 -0.875 C 3.246094 -0.300781 3.546875 0 4.121094 0 Z M 12.066406 -25.371094 L 15.140625 -25.371094 C 21.292969 -25.371094 24.238281 -22.167969 24.238281 -16.488281 C 24.238281 -10.804688 21.292969 -7.433594 15.140625 -7.433594 L 12.066406 -7.433594 Z M 12.066406 -25.371094 "/>
      </g>
    </g>
  </g>
  <g fill="rgb(100%, 100%, 100%)" fill-opacity="1" transform="matrix(1, 0, 0, 1, 62.213097, 68.935318)">
    <g transform="translate(121.606154, 202.455937)">
      <g>
        <path d="M 11.105469 0 C 11.683594 0 11.980469 -0.300781 11.980469 -0.875 L 11.980469 -31.929688 C 11.980469 -32.503906 11.683594 -32.804688 11.105469 -32.804688 L 4.121094 -32.804688 C 3.546875 -32.804688 3.246094 -32.503906 3.246094 -31.929688 L 3.246094 -0.875 C 3.246094 -0.300781 3.546875 0 4.121094 0 Z M 11.105469 0 "/>
      </g>
    </g>
  </g>
  <g fill="rgb(100%, 100%, 100%)" fill-opacity="1" transform="matrix(1, 0, 0, 1, 62.213097, 68.935318)">
    <g transform="translate(140.810387, 202.455937)">
      <g>
        <path d="M 19.691406 0.875 C 25.992188 0.875 31.050781 -1.496094 34.148438 -5.425781 C 34.46875 -5.808594 34.339844 -6.171875 33.851562 -6.515625 L 28.082031 -10.359375 C 27.636719 -10.679688 27.25 -10.59375 26.910156 -10.144531 C 25.285156 -8.179688 22.789062 -7.003906 19.691406 -7.003906 C 14.265625 -7.003906 10.679688 -10.59375 10.679688 -16.402344 C 10.679688 -22.210938 14.265625 -25.796875 19.691406 -25.796875 C 22.789062 -25.796875 25.285156 -24.625 26.910156 -22.660156 C 27.25 -22.210938 27.636719 -22.125 28.082031 -22.445312 L 33.851562 -26.289062 C 34.339844 -26.632812 34.425781 -27.039062 34.0625 -27.464844 C 30.925781 -31.351562 25.882812 -33.679688 19.691406 -33.679688 C 9.011719 -33.679688 1.921875 -26.953125 1.921875 -16.402344 C 1.921875 -5.851562 9.011719 0.875 19.691406 0.875 Z M 19.691406 0.875 "/>
      </g>
    </g>
  </g>
  <g fill="rgb(100%, 100%, 100%)" fill-opacity="1" transform="matrix(1, 0, 0, 1, 62.213097, 68.935318)">
    <g transform="translate(180.5109, 202.455937)">
      <g>
        <path d="M 19.691406 0.875 C 30.390625 0.875 37.523438 -5.851562 37.523438 -16.402344 C 37.523438 -26.953125 30.390625 -33.679688 19.691406 -33.679688 C 9.011719 -33.679688 1.921875 -26.953125 1.921875 -16.402344 C 1.921875 -5.851562 9.011719 0.875 19.691406 0.875 Z M 19.691406 -7.003906 C 14.265625 -7.003906 10.679688 -10.59375 10.679688 -16.402344 C 10.679688 -22.210938 14.265625 -25.796875 19.691406 -25.796875 C 25.15625 -25.796875 28.789062 -22.210938 28.789062 -16.402344 C 28.789062 -10.59375 25.15625 -7.003906 19.691406 -7.003906 Z M 19.691406 -7.003906 "/>
      </g>
    </g>
  </g>
  <g fill="rgb(100%, 100%, 100%)" fill-opacity="1" transform="matrix(1, 0, 0, 1, 62.213097, 68.935318)">
    <g transform="translate(223.969066, 202.455937)">
      <g>
        <path d="M 10.847656 0 C 11.425781 0 11.726562 -0.300781 11.726562 -0.875 L 11.726562 -16.53125 L 29.878906 0 C 31.246094 1.261719 32.226562 0.703125 32.226562 -0.789062 L 32.226562 -31.929688 C 32.226562 -32.503906 31.929688 -32.804688 31.351562 -32.804688 L 24.667969 -32.804688 C 24.089844 -32.804688 23.789062 -32.503906 23.789062 -31.929688 L 23.789062 -16.828125 L 5.425781 -33.015625 C 4.207031 -34.085938 3.289062 -33.550781 3.289062 -32.054688 L 3.289062 -0.875 C 3.289062 -0.300781 3.585938 0 4.164062 0 Z M 10.847656 0 "/>
      </g>
    </g>
  </g>
  <g fill="rgb(100%, 100%, 100%)" fill-opacity="1" transform="matrix(1, 0, 0, 1, 62.213097, 68.935318)">
    <g transform="translate(263.456077, 202.455937)">
      <g>
        <path d="M 24.539062 0 C 25.113281 0 25.414062 -0.300781 25.414062 -0.875 L 25.414062 -6.554688 C 25.414062 -7.132812 25.113281 -7.433594 24.539062 -7.433594 L 11.980469 -7.433594 L 11.980469 -11.277344 L 22.828125 -11.277344 C 23.40625 -11.277344 23.707031 -11.597656 23.707031 -12.152344 L 23.707031 -17.40625 C 23.707031 -17.980469 23.40625 -18.28125 22.828125 -18.28125 L 11.980469 -18.28125 L 11.980469 -25.371094 L 24.539062 -25.371094 C 25.113281 -25.371094 25.414062 -25.671875 25.414062 -26.246094 L 25.414062 -31.929688 C 25.414062 -32.503906 25.113281 -32.804688 24.539062 -32.804688 L 4.121094 -32.804688 C 3.546875 -32.804688 3.246094 -32.503906 3.246094 -31.929688 L 3.246094 -0.875 C 3.246094 -0.300781 3.546875 0 4.121094 0 Z M 24.539062 0 "/>
      </g>
    </g>
  </g>
  <g fill="rgb(100%, 100%, 100%)" fill-opacity="1" transform="matrix(1, 0, 0, 1, 62.213097, 68.935318)">
    <g transform="translate(295.342384, 202.455937)">
      <g>
        <path d="M 19.691406 0.875 C 25.992188 0.875 31.050781 -1.496094 34.148438 -5.425781 C 34.46875 -5.808594 34.339844 -6.171875 33.851562 -6.515625 L 28.082031 -10.359375 C 27.636719 -10.679688 27.25 -10.59375 26.910156 -10.144531 C 25.285156 -8.179688 22.789062 -7.003906 19.691406 -7.003906 C 14.265625 -7.003906 10.679688 -10.59375 10.679688 -16.402344 C 10.679688 -22.210938 14.265625 -25.796875 19.691406 -25.796875 C 22.789062 -25.796875 25.285156 -24.625 26.910156 -22.660156 C 27.25 -22.210938 27.636719 -22.125 28.082031 -22.445312 L 33.851562 -26.289062 C 34.339844 -26.632812 34.425781 -27.039062 34.0625 -27.464844 C 30.925781 -31.351562 25.882812 -33.679688 19.691406 -33.679688 C 9.011719 -33.679688 1.921875 -26.953125 1.921875 -16.402344 C 1.921875 -5.851562 9.011719 0.875 19.691406 0.875 Z M 19.691406 0.875 "/>
      </g>
    </g>
  </g>
  <g fill="rgb(100%, 100%, 100%)" fill-opacity="1" transform="matrix(1, 0, 0, 1, 62.213097, 68.935318)">
    <g transform="translate(335.042897, 202.455937)">
      <g>
        <path d="M 16.273438 0 C 16.828125 0 17.148438 -0.300781 17.148438 -0.875 L 17.148438 -25.371094 L 23.75 -25.371094 C 24.324219 -25.371094 24.625 -25.671875 24.625 -26.246094 L 24.625 -31.929688 C 24.625 -32.503906 24.324219 -32.804688 23.75 -32.804688 L 1.75 -32.804688 C 1.175781 -32.804688 0.875 -32.503906 0.875 -31.929688 L 0.875 -26.246094 C 0.875 -25.671875 1.175781 -25.371094 1.75 -25.371094 L 8.351562 -25.371094 L 8.351562 -0.875 C 8.351562 -0.300781 8.671875 0 9.226562 0 Z M 16.273438 0 "/>
      </g>
    </g>
  </g>
</svg>
