<svg xmlns="http://www.w3.org/2000/svg" xmlns:xlink="http://www.w3.org/1999/xlink" width="500" zoomAndPan="magnify" viewBox="0 0 375 374.999991" height="500" preserveAspectRatio="xMidYMid meet" version="1.0"><defs><g/><clipPath id="id1"><path d="M 78.132812 114 L 162 114 L 162 235.402344 L 78.132812 235.402344 Z M 78.132812 114 " clip-rule="nonzero"/></clipPath><clipPath id="id2"><path d="M 120 156 L 181 156 L 181 235.402344 L 120 235.402344 Z M 120 156 " clip-rule="nonzero"/></clipPath><clipPath id="id3"><path d="M 213 114 L 297 114 L 297 235.402344 L 213 235.402344 Z M 213 114 " clip-rule="nonzero"/></clipPath><clipPath id="id4"><path d="M 194 156 L 255 156 L 255 235.402344 L 194 235.402344 Z M 194 156 " clip-rule="nonzero"/></clipPath></defs><g fill="rgb(100%, 100%, 100%)" fill-opacity="1"><g transform="translate(13.538916, 240.240086)"><g><path d="M 9.269531 5.800781 C 9.761719 6.109375 10.171875 6.011719 10.476562 5.523438 L 16.722656 -4.453125 L 18.410156 6.78125 C 18.503906 7.398438 18.867188 7.625 19.441406 7.429688 L 30.421875 4.019531 L 24.132812 14.066406 C 23.824219 14.558594 23.921875 14.96875 24.410156 15.273438 L 30.148438 18.867188 C 30.636719 19.171875 31.050781 19.078125 31.355469 18.589844 L 47.902344 -7.847656 C 48.761719 -9.222656 48.007812 -10.152344 46.488281 -9.613281 L 24.601562 -1.941406 L 22.003906 -24.933594 C 21.820312 -26.613281 20.660156 -26.8125 19.796875 -25.433594 L 3.253906 1.003906 C 2.945312 1.492188 3.042969 1.902344 3.53125 2.210938 Z M 9.269531 5.800781 "/></g></g></g><g fill="rgb(100%, 100%, 100%)" fill-opacity="1"><g transform="translate(52.826672, 263.870587)"><g><path d="M 22.367188 10.109375 C 22.890625 10.347656 23.285156 10.195312 23.523438 9.671875 L 25.863281 4.492188 C 26.101562 3.96875 25.953125 3.570312 25.425781 3.335938 L 13.980469 -1.839844 L 15.566406 -5.34375 L 25.453125 -0.875 C 25.980469 -0.636719 26.382812 -0.804688 26.613281 -1.308594 L 28.777344 -6.097656 C 29.015625 -6.625 28.863281 -7.019531 28.339844 -7.257812 L 18.449219 -11.726562 L 21.371094 -18.1875 L 32.816406 -13.015625 C 33.34375 -12.777344 33.738281 -12.929688 33.976562 -13.453125 L 36.316406 -18.632812 C 36.554688 -19.15625 36.40625 -19.554688 35.878906 -19.789062 L 17.269531 -28.199219 C 16.746094 -28.4375 16.347656 -28.289062 16.109375 -27.761719 L 3.320312 0.539062 C 3.082031 1.066406 3.230469 1.460938 3.757812 1.699219 Z M 22.367188 10.109375 "/></g></g></g><g fill="rgb(100%, 100%, 100%)" fill-opacity="1"><g transform="translate(83.808036, 277.702505)"><g><path d="M 14.433594 4.4375 C 26.339844 8.097656 33.328125 3.832031 36.332031 -5.949219 C 39.390625 -15.890625 35.816406 -23.316406 24.078125 -26.925781 L 13.582031 -30.152344 C 13.03125 -30.320312 12.65625 -30.121094 12.488281 -29.570312 L 3.359375 0.117188 C 3.191406 0.667969 3.390625 1.042969 3.941406 1.210938 Z M 18.992188 -20.710938 L 21.933594 -19.804688 C 27.8125 -18 29.691406 -14.070312 28.019531 -8.636719 C 26.351562 -3.207031 22.542969 -0.847656 16.660156 -2.65625 L 13.71875 -3.558594 Z M 18.992188 -20.710938 "/></g></g></g><g fill="rgb(100%, 100%, 100%)" fill-opacity="1"><g transform="translate(122.840487, 288.862205)"><g><path d="M 10.898438 2.148438 C 11.464844 2.257812 11.816406 2.023438 11.925781 1.457031 L 17.933594 -29.015625 C 18.042969 -29.582031 17.808594 -29.929688 17.242188 -30.042969 L 10.390625 -31.394531 C 9.824219 -31.503906 9.472656 -31.269531 9.363281 -30.703125 L 3.355469 -0.230469 C 3.242188 0.335938 3.480469 0.6875 4.042969 0.796875 Z M 10.898438 2.148438 "/></g></g></g><g fill="rgb(100%, 100%, 100%)" fill-opacity="1"><g transform="translate(143.305742, 293.141416)"><g><path d="M 19.539062 2.636719 C 25.8125 3.199219 31.066406 1.292969 34.503906 -2.347656 C 34.859375 -2.699219 34.761719 -3.074219 34.304688 -3.457031 L 28.90625 -7.804688 C 28.488281 -8.164062 28.097656 -8.113281 27.714844 -7.695312 C 25.921875 -5.882812 23.328125 -4.9375 20.242188 -5.214844 C 14.839844 -5.699219 11.585938 -9.597656 12.105469 -15.382812 C 12.625 -21.171875 16.523438 -24.421875 21.925781 -23.9375 C 25.011719 -23.660156 27.394531 -22.265625 28.835938 -20.164062 C 29.136719 -19.6875 29.511719 -19.566406 29.988281 -19.84375 L 36.074219 -23.160156 C 36.59375 -23.453125 36.71875 -23.851562 36.394531 -24.308594 C 33.613281 -28.460938 28.800781 -31.234375 22.632812 -31.789062 C 11.996094 -32.742188 4.328125 -26.675781 3.382812 -16.167969 C 2.4375 -5.65625 8.898438 1.679688 19.539062 2.636719 Z M 19.539062 2.636719 "/></g></g></g><g fill="rgb(100%, 100%, 100%)" fill-opacity="1"><g transform="translate(185.274509, 296.579922)"><g><path d="M 19.710938 -0.277344 C 30.394531 -0.902344 37.125 -8.039062 36.507812 -18.574219 C 35.890625 -29.105469 28.375 -35.40625 17.691406 -34.78125 C 7.027344 -34.15625 0.34375 -27.023438 0.960938 -16.488281 C 1.578125 -5.957031 9.050781 0.347656 19.710938 -0.277344 Z M 19.25 -8.148438 C 13.835938 -7.828125 10.042969 -11.203125 9.703125 -17.003906 C 9.363281 -22.800781 12.734375 -26.59375 18.152344 -26.914062 C 23.609375 -27.230469 27.445312 -23.863281 27.785156 -18.0625 C 28.125 -12.261719 24.710938 -8.464844 19.25 -8.148438 Z M 19.25 -8.148438 "/></g></g></g><g fill="rgb(100%, 100%, 100%)" fill-opacity="1"><g transform="translate(230.999924, 293.283267)"><g><path d="M 10.621094 -2.222656 C 11.1875 -2.339844 11.417969 -2.695312 11.300781 -3.261719 L 8.089844 -18.585938 L 29.25 -6.121094 C 30.847656 -5.167969 31.695312 -5.914062 31.386719 -7.378906 L 25.007812 -37.863281 C 24.890625 -38.425781 24.535156 -38.65625 23.972656 -38.539062 L 17.425781 -37.167969 C 16.863281 -37.050781 16.628906 -36.695312 16.75 -36.132812 L 19.84375 -21.351562 L -1.457031 -33.433594 C -2.867188 -34.230469 -3.65625 -33.519531 -3.347656 -32.058594 L 3.039062 -1.53125 C 3.160156 -0.964844 3.511719 -0.734375 4.078125 -0.851562 Z M 10.621094 -2.222656 "/></g></g></g><g fill="rgb(100%, 100%, 100%)" fill-opacity="1"><g transform="translate(271.510385, 284.166623)"><g><path d="M 23.191406 -8.035156 C 23.738281 -8.222656 23.921875 -8.605469 23.730469 -9.148438 L 21.871094 -14.519531 C 21.683594 -15.0625 21.304688 -15.246094 20.757812 -15.058594 L 8.890625 -10.945312 L 7.632812 -14.582031 L 17.882812 -18.132812 C 18.429688 -18.320312 18.605469 -18.722656 18.425781 -19.246094 L 16.703125 -24.210938 C 16.515625 -24.757812 16.136719 -24.941406 15.589844 -24.753906 L 5.335938 -21.199219 L 3.015625 -27.902344 L 14.882812 -32.011719 C 15.429688 -32.203125 15.613281 -32.582031 15.425781 -33.128906 L 13.5625 -38.496094 C 13.375 -39.042969 12.996094 -39.226562 12.449219 -39.039062 L -6.847656 -32.351562 C -7.390625 -32.164062 -7.574219 -31.78125 -7.386719 -31.238281 L 2.78125 -1.890625 C 2.96875 -1.34375 3.351562 -1.160156 3.894531 -1.351562 Z M 23.191406 -8.035156 "/></g></g></g><g fill="rgb(100%, 100%, 100%)" fill-opacity="1"><g transform="translate(303.547242, 272.923518)"><g><path d="M 18.027344 -7.976562 C 23.671875 -10.78125 27.148438 -15.15625 28.175781 -20.054688 C 28.292969 -20.542969 28.015625 -20.8125 27.421875 -20.898438 L 20.546875 -21.777344 C 20.003906 -21.863281 19.695312 -21.617188 19.589844 -21.0625 C 19.011719 -18.578125 17.292969 -16.414062 14.519531 -15.039062 C 9.660156 -12.625 4.851562 -14.242188 2.265625 -19.445312 C -0.320312 -24.648438 1.296875 -29.457031 6.15625 -31.871094 C 8.929688 -33.25 11.691406 -33.308594 14.019531 -32.273438 C 14.527344 -32.023438 14.910156 -32.117188 15.167969 -32.605469 L 18.621094 -38.613281 C 18.910156 -39.136719 18.804688 -39.539062 18.289062 -39.761719 C 13.75 -41.84375 8.199219 -41.6875 2.648438 -38.929688 C -6.914062 -34.179688 -10.273438 -24.996094 -5.578125 -15.546875 C -0.882812 -6.097656 8.460938 -3.226562 18.027344 -7.976562 Z M 18.027344 -7.976562 "/></g></g></g><g fill="rgb(100%, 100%, 100%)" fill-opacity="1"><g transform="translate(340.55903, 253.77797)"><g><path d="M 13.574219 -8.980469 C 14.039062 -9.285156 14.140625 -9.714844 13.824219 -10.195312 L 0.304688 -30.628906 L 5.808594 -34.269531 C 6.292969 -34.589844 6.375 -35.003906 6.058594 -35.484375 L 2.921875 -40.222656 C 2.605469 -40.703125 2.191406 -40.789062 1.707031 -40.46875 L -16.640625 -28.332031 C -17.121094 -28.011719 -17.207031 -27.597656 -16.890625 -27.117188 L -13.753906 -22.378906 C -13.4375 -21.898438 -13.019531 -21.8125 -12.539062 -22.132812 L -7.035156 -25.773438 L 6.484375 -5.339844 C 6.800781 -4.859375 7.234375 -4.785156 7.695312 -5.089844 Z M 13.574219 -8.980469 "/></g></g></g><g fill="rgb(100%, 100%, 100%)" fill-opacity="1"><g transform="translate(366.034597, 236.359352)"><g/></g></g><path fill="rgb(100%, 100%, 100%)" d="M 125.332031 84.929688 C 127.851562 85.234375 130.128906 83.441406 130.433594 80.933594 C 130.699219 78.699219 131.132812 76.53125 131.714844 74.496094 C 133.6875 67.574219 138.304688 61.886719 144.703125 58.480469 C 151.296875 54.976562 158.867188 54.320312 166.03125 56.636719 C 169.664062 57.808594 173.121094 59.457031 176.308594 61.527344 C 183.195312 66 192.070312 66.007812 198.921875 61.550781 C 202.121094 59.46875 205.589844 57.816406 209.234375 56.636719 C 216.410156 54.316406 224 54.984375 230.601562 58.519531 C 237.039062 61.964844 241.660156 67.714844 243.613281 74.703125 C 245.996094 83.246094 244.917969 90.980469 244.902344 91.089844 C 240.710938 120.957031 211.855469 141.4375 195.027344 150.988281 C 190.464844 153.574219 184.796875 153.574219 180.234375 150.984375 C 169.277344 144.765625 149.222656 131.488281 138.035156 112.453125 C 136.601562 110.011719 136.683594 107.019531 138.246094 104.832031 C 139.132812 103.589844 140.765625 101.925781 144.855469 101.960938 C 147.886719 101.980469 150.855469 103.160156 153.210938 105.273438 L 153.457031 105.488281 C 163.808594 114.640625 179.308594 115.859375 191.144531 108.453125 L 192.429688 107.652344 C 196.5625 105.066406 199.558594 104.105469 203.480469 104.105469 C 206.015625 104.105469 208.066406 102.058594 208.066406 99.53125 C 208.066406 97.007812 206.015625 94.960938 203.480469 94.960938 C 197.78125 94.960938 193.167969 96.394531 187.554688 99.902344 L 186.269531 100.707031 C 177.859375 105.964844 166.867188 105.121094 159.539062 98.644531 L 159.355469 98.480469 C 155.320312 94.859375 150.191406 92.847656 144.910156 92.816406 C 144.863281 92.816406 144.816406 92.816406 144.769531 92.816406 C 137.160156 92.816406 132.957031 96.464844 130.765625 99.53125 C 127.117188 104.648438 126.863281 111.535156 130.121094 117.074219 C 142.386719 137.949219 163.941406 152.261719 175.695312 158.933594 C 179.378906 161.023438 183.507812 162.066406 187.636719 162.066406 C 191.761719 162.066406 195.886719 161.023438 199.5625 158.9375 C 217.859375 148.558594 249.253906 126.101562 253.984375 92.398438 C 254.042969 92.007812 255.378906 82.742188 252.449219 72.25 C 249.820312 62.835938 243.605469 55.097656 234.941406 50.460938 C 226.246094 45.804688 215.84375 44.882812 206.402344 47.9375 C 201.988281 49.367188 197.78125 51.367188 193.90625 53.890625 C 190.097656 56.367188 185.15625 56.355469 181.316406 53.863281 C 177.453125 51.351562 173.261719 49.359375 168.859375 47.9375 C 159.445312 44.890625 149.066406 45.792969 140.386719 50.410156 C 131.765625 54.996094 125.550781 62.660156 122.890625 71.992188 C 122.175781 74.492188 121.648438 77.132812 121.324219 79.84375 C 121.023438 82.351562 122.816406 84.628906 125.332031 84.929688 " fill-opacity="1" fill-rule="nonzero"/><path fill="rgb(100%, 100%, 100%)" d="M 216.371094 102.074219 C 216.535156 102.320312 216.734375 102.558594 216.945312 102.765625 C 217.792969 103.613281 218.980469 104.105469 220.1875 104.105469 C 220.488281 104.105469 220.789062 104.078125 221.082031 104.019531 C 221.371094 103.953125 221.660156 103.871094 221.941406 103.757812 C 222.21875 103.640625 222.488281 103.496094 222.730469 103.335938 C 222.984375 103.171875 223.21875 102.972656 223.429688 102.765625 C 223.640625 102.558594 223.828125 102.320312 224 102.074219 C 224.164062 101.824219 224.308594 101.554688 224.421875 101.28125 C 224.539062 101.007812 224.625 100.722656 224.683594 100.425781 C 224.742188 100.132812 224.773438 99.832031 224.773438 99.53125 C 224.773438 99.238281 224.742188 98.9375 224.683594 98.636719 C 224.625 98.347656 224.539062 98.0625 224.421875 97.78125 C 224.308594 97.507812 224.164062 97.246094 224 96.996094 C 223.828125 96.742188 223.640625 96.507812 223.429688 96.296875 C 223.21875 96.089844 222.984375 95.898438 222.730469 95.730469 C 222.488281 95.566406 222.21875 95.421875 221.941406 95.3125 C 221.660156 95.191406 221.371094 95.109375 221.082031 95.046875 C 219.589844 94.75 218.003906 95.238281 216.945312 96.296875 C 216.734375 96.507812 216.535156 96.742188 216.371094 96.996094 C 216.210938 97.246094 216.0625 97.507812 215.953125 97.78125 C 215.835938 98.0625 215.75 98.347656 215.691406 98.636719 C 215.632812 98.9375 215.597656 99.238281 215.597656 99.53125 C 215.597656 99.832031 215.632812 100.132812 215.691406 100.425781 C 215.75 100.722656 215.835938 101.007812 215.953125 101.28125 C 216.0625 101.554688 216.210938 101.824219 216.371094 102.074219 " fill-opacity="1" fill-rule="nonzero"/><g clip-path="url(#id1)"><path fill="rgb(100%, 100%, 100%)" d="M 99.34375 196.566406 C 103.210938 199.195312 107.726562 202.3125 112.765625 205.824219 C 119.058594 210.210938 123.25 217.078125 124.269531 224.664062 C 125.09375 230.78125 130.382812 235.398438 136.574219 235.398438 L 156.84375 235.398438 C 159.378906 235.398438 161.429688 233.347656 161.429688 230.824219 C 161.429688 228.296875 159.378906 226.25 156.84375 226.25 L 136.574219 226.25 C 134.960938 226.25 133.578125 225.046875 133.367188 223.449219 C 132.007812 213.332031 126.414062 204.175781 118.019531 198.324219 C 112.953125 194.796875 108.410156 191.660156 104.515625 189.011719 C 101.015625 186.628906 98.417969 183.246094 97.011719 179.226562 C 94.097656 170.917969 88.996094 153.425781 87.550781 129.617188 C 87.460938 128.183594 87.960938 126.816406 88.949219 125.765625 C 89.945312 124.714844 91.289062 124.132812 92.738281 124.132812 C 95.347656 124.132812 97.566406 126.078125 97.894531 128.652344 C 98.585938 134.015625 99.605469 141.695312 100.554688 147.828125 C 101.304688 152.671875 103.757812 157.125 107.46875 160.359375 L 110.066406 162.628906 C 111.972656 164.292969 114.871094 164.101562 116.539062 162.203125 C 118.207031 160.300781 118.015625 157.414062 116.113281 155.75 L 113.511719 153.480469 C 111.425781 151.65625 110.042969 149.15625 109.621094 146.429688 C 108.6875 140.394531 107.675781 132.800781 106.996094 127.488281 C 106.078125 120.363281 99.953125 114.984375 92.738281 114.984375 C 88.792969 114.984375 84.976562 116.632812 82.269531 119.496094 C 79.566406 122.359375 78.152344 126.25 78.390625 130.171875 C 79.828125 153.832031 84.601562 171.550781 88.351562 182.246094 C 90.410156 188.121094 94.210938 193.074219 99.34375 196.566406 " fill-opacity="1" fill-rule="nonzero"/></g><g clip-path="url(#id2)"><path fill="rgb(100%, 100%, 100%)" d="M 133.261719 190.226562 C 134.765625 191.65625 135.761719 193.574219 136.070312 195.617188 L 137.207031 203.183594 C 137.582031 205.683594 139.917969 207.402344 142.425781 207.027344 C 144.929688 206.652344 146.65625 204.324219 146.28125 201.828125 L 145.144531 194.261719 C 144.535156 190.21875 142.566406 186.433594 139.59375 183.609375 L 131.667969 176.070312 C 130.386719 174.855469 129.710938 173.214844 129.757812 171.449219 C 129.808594 169.6875 130.578125 168.085938 131.929688 166.945312 C 133.894531 165.273438 136.738281 165.011719 139 166.292969 C 151.753906 173.507812 161.191406 184.074219 166.859375 191.667969 C 169.761719 195.550781 171.359375 200.371094 171.359375 205.234375 L 171.359375 230.824219 C 171.359375 233.347656 173.414062 235.398438 175.949219 235.398438 C 178.480469 235.398438 180.535156 233.347656 180.535156 230.824219 L 180.535156 205.234375 C 180.535156 198.417969 178.292969 191.65625 174.222656 186.207031 C 168.023438 177.90625 157.667969 166.335938 143.527344 158.335938 C 137.921875 155.167969 130.871094 155.828125 125.980469 159.976562 C 122.675781 162.78125 120.710938 166.867188 120.589844 171.191406 C 120.464844 175.515625 122.195312 179.703125 125.335938 182.691406 L 133.261719 190.226562 " fill-opacity="1" fill-rule="nonzero"/></g><g clip-path="url(#id3)"><path fill="rgb(100%, 100%, 100%)" d="M 282.527344 114.984375 C 275.316406 114.984375 269.1875 120.363281 268.269531 127.488281 C 267.585938 132.8125 266.578125 140.417969 265.648438 146.429688 C 265.222656 149.15625 263.84375 151.65625 261.753906 153.480469 L 259.15625 155.75 C 257.25 157.414062 257.058594 160.304688 258.726562 162.203125 C 260.394531 164.101562 263.296875 164.292969 265.199219 162.628906 L 267.800781 160.359375 C 271.507812 157.125 273.964844 152.671875 274.714844 147.828125 C 275.660156 141.71875 276.679688 134.027344 277.371094 128.652344 C 277.703125 126.078125 279.917969 124.132812 282.527344 124.132812 C 283.976562 124.132812 285.320312 124.714844 286.316406 125.765625 C 287.304688 126.816406 287.804688 128.183594 287.714844 129.617188 C 286.273438 153.425781 281.167969 170.917969 278.253906 179.226562 C 276.847656 183.246094 274.25 186.628906 270.75 189.011719 C 264.953125 192.957031 258.65625 197.339844 254.390625 200.320312 C 247.8125 204.917969 243.425781 212.113281 242.355469 220.058594 L 241.902344 223.449219 C 241.6875 225.046875 240.308594 226.25 238.695312 226.25 L 218.421875 226.25 C 215.890625 226.25 213.835938 228.296875 213.835938 230.824219 C 213.835938 233.347656 215.890625 235.398438 218.421875 235.398438 L 238.695312 235.398438 C 244.882812 235.398438 250.171875 230.78125 250.996094 224.664062 L 251.449219 221.273438 C 252.179688 215.855469 255.171875 210.945312 259.660156 207.808594 C 263.902344 204.839844 270.167969 200.484375 275.925781 196.566406 C 281.054688 193.070312 284.855469 188.121094 286.914062 182.246094 C 290.667969 171.550781 295.4375 153.835938 296.875 130.171875 C 297.113281 126.25 295.699219 122.359375 292.996094 119.496094 C 290.289062 116.632812 286.472656 114.984375 282.527344 114.984375 " fill-opacity="1" fill-rule="nonzero"/></g><g clip-path="url(#id4)"><path fill="rgb(100%, 100%, 100%)" d="M 249.285156 159.980469 C 244.394531 155.828125 237.34375 155.167969 231.738281 158.335938 C 217.597656 166.335938 207.242188 177.90625 201.046875 186.203125 C 196.972656 191.65625 194.730469 198.417969 194.730469 205.234375 L 194.730469 230.824219 C 194.730469 233.347656 196.785156 235.398438 199.320312 235.398438 C 201.851562 235.398438 203.90625 233.347656 203.90625 230.824219 L 203.90625 205.234375 C 203.90625 200.371094 205.503906 195.550781 208.40625 191.667969 C 214.074219 184.074219 223.511719 173.507812 236.265625 166.292969 C 238.53125 165.015625 241.371094 165.273438 243.339844 166.945312 C 244.6875 168.085938 245.457031 169.6875 245.507812 171.449219 C 245.558594 173.214844 244.878906 174.855469 243.601562 176.070312 L 235.671875 183.613281 C 232.703125 186.433594 230.730469 190.21875 230.121094 194.261719 L 228.984375 201.828125 C 228.609375 204.324219 230.335938 206.652344 232.839844 207.027344 C 235.339844 207.40625 237.683594 205.683594 238.058594 203.183594 L 239.195312 195.617188 C 239.503906 193.574219 240.5 191.65625 242.003906 190.226562 L 249.933594 182.6875 C 253.070312 179.703125 254.800781 175.515625 254.675781 171.191406 C 254.554688 166.867188 252.589844 162.78125 249.285156 159.980469 " fill-opacity="1" fill-rule="nonzero"/></g></svg>